<svg xmlns="http://www.w3.org/2000/svg" width="256" height="256" viewBox="0 0 16 16" shape-rendering="crispEdges">
  <!-- Pixel snout: pig-pink circle, brown nostrils left + right -->
  <rect width="16" height="16" fill="none"/>
  <g fill="#FFBC94">
    <rect x="5" y="2" width="6" height="1"/>
    <rect x="4" y="3" width="8" height="1"/>
    <rect x="3" y="4" width="10" height="1"/>
    <rect x="2" y="5" width="12" height="1"/>
    <rect x="2" y="6" width="2" height="1"/>
    <rect x="6" y="6" width="4" height="1"/>
    <rect x="12" y="6" width="2" height="1"/>
    <rect x="2" y="7" width="2" height="1"/>
    <rect x="6" y="7" width="4" height="1"/>
    <rect x="12" y="7" width="2" height="1"/>
    <rect x="2" y="8" width="12" height="1"/>
    <rect x="2" y="9" width="12" height="1"/>
    <rect x="2" y="10" width="12" height="1"/>
    <rect x="3" y="11" width="10" height="1"/>
    <rect x="4" y="12" width="8" height="1"/>
    <rect x="5" y="13" width="6" height="1"/>
  </g>
  <g fill="#6B3E26">
    <rect x="3" y="6" width="2" height="2"/>
    <rect x="11" y="6" width="2" height="2"/>
  </g>
</svg>